<?xml version="1.0" encoding="UTF-8" standalone="no"?> <svg width="64" height="64" viewBox="0 0 64 64" fill="none" xmlns="http://www.w3.org/2000/svg">
<path d="M50.0898 13L40.3398 3.29C40.1535 3.10526 39.9021 3.0011 39.6398 3H14.7598C13.3072 3.00264 11.9149 3.58085 10.8878 4.60797C9.86063 5.6351 9.28243 7.02743 9.27979 8.48V49.93C9.28243 51.3826 9.86063 52.7749 10.8878 53.802C11.9149 54.8292 13.3072 55.4074 14.7598 55.41H35.2298V60C35.2304 60.1943 35.2876 60.3842 35.3944 60.5465C35.5013 60.7088 35.653 60.8365 35.8313 60.9139C36.0095 60.9914 36.2064 61.0152 36.3979 60.9826C36.5894 60.9499 36.7673 60.8621 36.9098 60.73L39.6398 58.2L42.3698 60.73C42.5123 60.8621 42.6901 60.9499 42.8817 60.9826C43.0732 61.0152 43.2701 60.9914 43.4483 60.9139C43.6265 60.8365 43.7783 60.7088 43.8851 60.5465C43.9919 60.3842 44.0492 60.1943 44.0498 60V55.41H44.8998C46.3541 55.41 47.749 54.833 48.7783 53.8056C49.8076 52.7781 50.3871 51.3843 50.3898 49.93V13.75C50.3947 13.611 50.3705 13.4725 50.3189 13.3434C50.2672 13.2142 50.1892 13.0973 50.0898 13V13ZM40.6398 6.41L46.9998 12.75H40.6398V6.41ZM42.0498 52.49V57.71L40.3198 56.11C40.1349 55.9385 39.892 55.8432 39.6398 55.8432C39.3876 55.8432 39.1447 55.9385 38.9598 56.11L37.2298 57.71V52.49C37.23 52.3262 37.19 52.1648 37.1133 52.0201C37.0366 51.8754 36.9255 51.7517 36.7898 51.66C35.8888 51.051 35.2071 50.1689 34.8449 49.1435C34.4826 48.1181 34.459 47.0035 34.7775 45.9637C35.096 44.9238 35.7398 44.0137 36.6141 43.367C37.4885 42.7204 38.5473 42.3714 39.6348 42.3714C40.7223 42.3714 41.7811 42.7204 42.6554 43.367C43.5298 44.0137 44.1736 44.9238 44.4921 45.9637C44.8105 47.0035 44.7869 48.1181 44.4247 49.1435C44.0625 50.1689 43.3807 51.051 42.4798 51.66C42.3459 51.7529 42.2368 51.877 42.1618 52.0217C42.0869 52.1663 42.0484 52.3271 42.0498 52.49V52.49ZM44.8998 53.41H44.0498V53C45.1986 52.0853 46.0346 50.836 46.4419 49.4252C46.8493 48.0143 46.8079 46.5117 46.3234 45.1254C45.8389 43.7392 44.9354 42.5378 43.7379 41.6878C42.5404 40.8378 41.1083 40.3812 39.6398 40.3812C38.1713 40.3812 36.7391 40.8378 35.5417 41.6878C34.3442 42.5378 33.4407 43.7392 32.9562 45.1254C32.4717 46.5117 32.4303 48.0143 32.8376 49.4252C33.245 50.836 34.081 52.0853 35.2298 53V53.42H14.7598C13.8368 53.42 12.9517 53.0534 12.2991 52.4007C11.6464 51.7481 11.2798 50.863 11.2798 49.94V8.48C11.2798 7.55705 11.6464 6.6719 12.2991 6.01927C12.9517 5.36664 13.8368 5 14.7598 5H38.6398V13.75C38.6398 14.0152 38.7451 14.2696 38.9327 14.4571C39.1202 14.6446 39.3746 14.75 39.6398 14.75H48.3898V49.93C48.3871 50.8539 48.0183 51.739 47.3641 52.3913C46.7098 53.0437 45.8237 53.41 44.8998 53.41V53.41Z" fill="black"/>
<path d="M39.64 43.4001C38.8341 43.3882 38.043 43.6164 37.3672 44.0557C36.6915 44.4949 36.1618 45.1254 35.8456 45.8667C35.5294 46.608 35.4409 47.4267 35.5916 48.2184C35.7422 49.0102 36.1251 49.7392 36.6914 50.3126C37.2577 50.886 37.9819 51.2779 38.7718 51.4384C39.5616 51.5988 40.3813 51.5206 41.1265 51.2136C41.8717 50.9066 42.5086 50.3848 42.9563 49.7146C43.4039 49.0443 43.6419 48.2561 43.64 47.4501C43.6375 46.3854 43.2168 45.3642 42.4687 44.6067C41.7205 43.8491 40.7046 43.4158 39.64 43.4001V43.4001ZM39.64 49.5101C39.2302 49.522 38.8262 49.4114 38.4797 49.1925C38.1331 48.9735 37.8597 48.6561 37.6946 48.2809C37.5294 47.9057 37.48 47.4897 37.5526 47.0863C37.6251 46.6828 37.8164 46.3101 38.102 46.016C38.3876 45.7219 38.7544 45.5196 39.1555 45.4352C39.5567 45.3507 39.9739 45.3878 40.3539 45.5418C40.7338 45.6958 41.0591 45.9597 41.2882 46.2996C41.5174 46.6396 41.6398 47.0402 41.64 47.4501C41.6402 47.9862 41.4315 48.5013 41.058 48.8859C40.6846 49.2706 40.1759 49.4945 39.64 49.5101V49.5101Z" fill="black"/>
<path d="M15 16.1799H28.1C28.3652 16.1799 28.6196 16.0746 28.8071 15.887C28.9946 15.6995 29.1 15.4451 29.1 15.1799C29.1 14.9147 28.9946 14.6604 28.8071 14.4728C28.6196 14.2853 28.3652 14.1799 28.1 14.1799H15C14.7348 14.1799 14.4804 14.2853 14.2929 14.4728C14.1054 14.6604 14 14.9147 14 15.1799C14 15.4451 14.1054 15.6995 14.2929 15.887C14.4804 16.0746 14.7348 16.1799 15 16.1799V16.1799Z" fill="black"/>
<path d="M44.51 19.77H15C14.7348 19.77 14.4804 19.8754 14.2929 20.0629C14.1054 20.2504 14 20.5048 14 20.77C14 21.0352 14.1054 21.2896 14.2929 21.4771C14.4804 21.6647 14.7348 21.77 15 21.77H44.51C44.7752 21.77 45.0296 21.6647 45.2171 21.4771C45.4046 21.2896 45.51 21.0352 45.51 20.77C45.51 20.5048 45.4046 20.2504 45.2171 20.0629C45.0296 19.8754 44.7752 19.77 44.51 19.77Z" fill="black"/>
<path d="M44.51 25.3701H15C14.7348 25.3701 14.4804 25.4755 14.2929 25.663C14.1054 25.8505 14 26.1049 14 26.3701C14 26.6353 14.1054 26.8897 14.2929 27.0772C14.4804 27.2648 14.7348 27.3701 15 27.3701H44.51C44.7752 27.3701 45.0296 27.2648 45.2171 27.0772C45.4046 26.8897 45.51 26.6353 45.51 26.3701C45.51 26.1049 45.4046 25.8505 45.2171 25.663C45.0296 25.4755 44.7752 25.3701 44.51 25.3701Z" fill="black"/>
<path d="M44.51 31H15C14.7348 31 14.4804 31.1054 14.2929 31.2929C14.1054 31.4804 14 31.7348 14 32C14 32.2652 14.1054 32.5196 14.2929 32.7071C14.4804 32.8946 14.7348 33 15 33H44.51C44.7752 33 45.0296 32.8946 45.2171 32.7071C45.4046 32.5196 45.51 32.2652 45.51 32C45.51 31.7348 45.4046 31.4804 45.2171 31.2929C45.0296 31.1054 44.7752 31 44.51 31Z" fill="black"/>
<path d="M44.51 36.55H15C14.7348 36.55 14.4804 36.6554 14.2929 36.8429C14.1054 37.0305 14 37.2848 14 37.55C14 37.8153 14.1054 38.0696 14.2929 38.2572C14.4804 38.4447 14.7348 38.55 15 38.55H44.51C44.7752 38.55 45.0296 38.4447 45.2171 38.2572C45.4046 38.0696 45.51 37.8153 45.51 37.55C45.51 37.2848 45.4046 37.0305 45.2171 36.8429C45.0296 36.6554 44.7752 36.55 44.51 36.55Z" fill="black"/>
<path d="M28.36 42.1399H15C14.7348 42.1399 14.4804 42.2452 14.2929 42.4328C14.1054 42.6203 14 42.8747 14 43.1399C14 43.4051 14.1054 43.6595 14.2929 43.847C14.4804 44.0345 14.7348 44.1399 15 44.1399H28.36C28.6252 44.1399 28.8796 44.0345 29.0671 43.847C29.2546 43.6595 29.36 43.4051 29.36 43.1399C29.36 42.8747 29.2546 42.6203 29.0671 42.4328C28.8796 42.2452 28.6252 42.1399 28.36 42.1399Z" fill="black"/>
</svg>
